<svg xmlns="http://www.w3.org/2000/svg" viewBox="0 0 342 236" width="342" height="236">
	<style>
		tspan { white-space:pre }
	</style>
	<path id="10 " fill="#000000" d="M0.75 61.6C0.75 73.9 10.95 83.8 23.25 83.8C27.45 83.8 31.65 82.6 34.95 80.5L55.65 67.6L55.65 205.6C55.65 220.6 67.95 232.9 82.95 232.9C97.95 232.9 110.25 220.6 110.25 205.6L110.25 28C110.25 13.6 98.55 1.6 83.85 1.6C78.75 1.6 73.65 3.4 69.75 5.8L11.25 42.7C5.25 46.6 0.75 53.8 0.75 61.6ZM153.15 117.7C153.15 199.6 186.45 235.6 247.35 235.6C307.35 235.6 342.15 197.2 342.15 117.7C342.15 35.8 307.95 -0.2 247.95 -0.2C189.15 -0.2 153.15 39.1 153.15 117.7ZM211.35 117.7C211.35 61.3 224.55 42.1 247.65 42.1C270.75 42.1 283.95 62.5 283.95 117.7C283.95 174.7 270.15 193.3 247.65 193.3C223.65 193.3 211.35 172.9 211.35 117.7Z" />
</svg>