<svg xmlns="http://www.w3.org/2000/svg" viewBox="0 0 170 232" width="170" height="232">
	<style>
		tspan { white-space:pre }
	</style>
	<path id="2 " fill="#000000" d="M-0.15 204.1C-0.15 218.8 11.85 230.5 26.25 230.5L147.15 230.5C159.75 230.5 169.95 220.3 169.95 207.7C169.95 195.1 159.75 184.9 147.15 184.9L77.85 184.9L77.85 184C136.95 132.1 165.75 111.1 165.75 64.3C165.75 26.8 136.95 -0.2 87.45 -0.2C29.55 -0.2 1.35 26.5 1.35 72.4C1.35 83.88 10.95 95.2 27.75 95.2C41.55 95.2 52.65 86.2 52.65 71.2C52.65 53.8 66.75 42.4 84.75 42.4C101.55 42.4 112.05 52 112.05 70C112.05 96.4 82.65 119.8 8.85 184.3C3.45 189.1 -0.15 196.3 -0.15 204.1Z" />
</svg>