<svg xmlns="http://www.w3.org/2000/svg" viewBox="0 0 190 234" width="190" height="234">
	<style>
		tspan { white-space:pre }
	</style>
	<path id="4 " fill="#000000" d="M-0.15 165.7C-0.15 177.1 9.15 186.1 20.25 186.1L106.35 186.1L106.35 206.8C106.35 221.2 118.05 232.9 132.75 232.9C147.15 232.9 158.85 221.2 158.85 206.8L158.85 186.1L166.95 186.1C178.95 186.1 188.85 176.2 188.85 163.9C188.85 151.9 178.95 142 166.95 142L158.85 142L158.85 43.9C158.85 20.5 139.95 1.6 116.55 1.6C100.95 1.6 87.15 10 79.95 22.6L2.55 155.5C0.75 158.5 -0.15 162.1 -0.15 165.7ZM56.55 142L85.65 90.7C95.76 73.11 99.84 63.77 105.75 48.4L107.25 48.4L107.25 142Z" />
</svg>