<svg xmlns="http://www.w3.org/2000/svg" viewBox="0 0 166 232" width="166" height="232">
	<style>
		tspan { white-space:pre }
	</style>
	<path id="5 " fill="#000000" d="M-0.25 184.2C-0.25 189.6 0.95 194.4 3.65 198.6C16.55 218.4 40.25 231 78.65 231C129.35 231 164.75 200.1 164.75 152.4C164.75 105.3 135.35 80.1 93.35 80.1C76.25 80.1 63.95 83.4 51.95 93.9L51.35 93.9L60.05 47.1L132.95 47.1C145.85 47.1 156.35 36.6 156.35 23.7C156.35 10.5 145.85 0 132.95 0L46.55 0C31.25 0 21.84 7.78 18.95 22.8L5.45 93C5.15 94.8 4.85 97.2 4.85 99.3C4.85 118.2 19.25 131.4 36.95 131.4C52.51 131.4 60.45 120 78.95 120C98.15 120 110.45 132.6 110.45 153.3C110.45 176.1 97.85 189.6 77.15 189.6C47.75 189.6 48.07 158.7 25.25 158.7C11.15 158.7 -0.25 170.1 -0.25 184.2Z" />
</svg>