<svg xmlns="http://www.w3.org/2000/svg" viewBox="0 0 182 236" width="182" height="236">
	<style>
		tspan { white-space:pre }
	</style>
	<path id="6 " fill="#000000" d="M1.2 129.1C1.2 202 37.8 235 93.6 235C148.2 235 181.2 199 181.2 155.5C181.2 105.1 147.3 83.2 108.6 83.2C82.5 83.2 68.4 91 56.7 104.2L56.1 104.2C56.1 64 75.6 41.2 96.9 41.2C118.35 41.2 121.94 66.4 142.8 66.4C156.3 66.4 167.4 55.6 167.4 42.1C167.4 13.38 130.71 -0.2 99 -0.2C43.8 -0.2 1.2 39.7 1.2 129.1ZM60.3 158.5C60.3 138.1 73.5 123.7 93.9 123.7C114.3 123.7 127.5 138.1 127.5 158.5C127.5 178.9 114.3 193 93.9 193C72.6 193 60.3 178.9 60.3 158.5Z" />
</svg>