<svg xmlns="http://www.w3.org/2000/svg" viewBox="0 0 180 238" width="180" height="238">
	<style>
		tspan { white-space:pre }
	</style>
	<path id="8 " fill="#000000" d="M0.3 168.9C0.3 211.2 34.2 237.6 90.3 237.6C146.4 237.6 179.7 210.3 179.7 168.3C179.7 141 161.7 121.8 139.8 114.6L139.8 113.7C159 105.3 172.5 88.2 172.5 63C172.5 27 141.6 0.3 90 0.3C38.4 0.3 7.5 27.6 7.5 63.6C7.5 89.7 20.4 105.3 39.9 113.7L39.9 114.6C18.3 121.8 0.3 141.3 0.3 168.9ZM59.1 67.2C59.1 49.2 73.2 39.6 90 39.6C106.8 39.6 120.9 49.2 120.9 67.2C120.9 85.2 106.8 94.8 90 94.8C73.2 94.8 59.1 85.2 59.1 67.2ZM55.8 165.6C55.8 145.2 70.5 133.8 90 133.8C109.5 133.8 124.2 145.2 124.2 165.6C124.2 185.7 109.5 197.1 90 197.1C70.5 197.1 55.8 185.7 55.8 165.6Z" />
</svg>