<svg xmlns="http://www.w3.org/2000/svg" viewBox="0 0 182 238" width="182" height="238">
	<style>
		tspan { white-space:pre }
	</style>
	<path id="9 " fill="#000000" d="M1.25 79.5C1.25 125.1 33.35 151.8 75.05 151.8C99.95 151.8 112.25 142.8 122.45 131.7L123.35 131.7C122.45 180.6 105.65 195 82.55 195C62.85 195 56.49 171.6 36.95 171.6C23.15 171.6 12.35 182.7 12.35 196.2C12.35 226.47 52.8 237 83.45 237C141.05 237 181.25 198.3 181.25 110.1C181.25 38.4 144.95 1.2 89.15 1.2C32.15 1.2 1.25 36.3 1.25 79.5ZM55.85 78.3C55.85 57.9 68.75 43.5 89.15 43.5C110.45 43.5 122.45 57.9 122.45 78.3C122.45 98.7 109.55 113.1 89.15 113.1C68.75 113.1 55.85 98.7 55.85 78.3Z" />
</svg>