<svg height="512pt" viewBox="0 0 512 512" width="512pt" xmlns="http://www.w3.org/2000/svg"><path d="m406.070312 150.066406-131.347656-141.699218c-4.765625-5.324219-11.574218-8.367188-18.722656-8.367188s-13.957031 3.042969-18.722656 8.367188l-131.347656 141.699218-35.308594 17.65625-8.828125 176.550782h370.757812v-185.378907zm0 0" fill="#2980ba"/><g fill="#285680"><path d="m176.550781 211.859375h-70.621093c-4.875 0-8.828126-3.949219-8.828126-8.824219s3.953126-8.828125 8.828126-8.828125h70.621093c4.875 0 8.828125 3.953125 8.828125 8.828125s-3.953125 8.824219-8.828125 8.824219zm0 0"/><path d="m176.550781 291.308594h-70.621093c-4.875 0-8.828126-3.953125-8.828126-8.828125s3.953126-8.824219 8.828126-8.824219h70.621093c4.875 0 8.828125 3.949219 8.828125 8.824219s-3.953125 8.828125-8.828125 8.828125zm0 0"/><path d="m406.070312 211.859375h-70.621093c-4.875 0-8.828125-3.949219-8.828125-8.824219s3.953125-8.828125 8.828125-8.828125h70.621093c4.875 0 8.828126 3.953125 8.828126 8.828125s-3.953126 8.824219-8.828126 8.824219zm0 0"/><path d="m406.070312 291.308594h-70.621093c-4.875 0-8.828125-3.953125-8.828125-8.828125s3.953125-8.824219 8.828125-8.824219h70.621093c4.875 0 8.828126 3.949219 8.828126 8.824219s-3.953126 8.828125-8.828126 8.828125zm0 0"/></g><path d="m17.65625 414.894531h476.6875c4.875 0 8.828125 3.953125 8.828125 8.828125v52.964844c0 19.503906-15.808594 35.3125-35.308594 35.3125h-423.726562c-19.5 0-35.308594-15.808594-35.308594-35.3125v-52.964844c0-4.875 3.953125-8.828125 8.828125-8.828125zm0 0" fill="#805333"/><path d="m44.136719 326.621094h423.726562c24.375 0 44.136719 19.761718 44.136719 44.136718s-19.761719 44.136719-44.136719 44.136719h-423.726562c-24.375 0-44.136719-19.761719-44.136719-44.136719s19.761719-44.136718 44.136719-44.136718zm0 0" fill="#c03a2b"/><path d="m61.792969 370.757812h-17.65625c-4.875 0-8.828125-3.953124-8.828125-8.828124s3.953125-8.828126 8.828125-8.828126h17.65625c4.875 0 8.828125 3.953126 8.828125 8.828126s-3.953125 8.828124-8.828125 8.828124zm0 0" fill="#f09372"/><path d="m247.171875 370.757812h-150.070313c-4.875 0-8.824218-3.953124-8.824218-8.828124s3.949218-8.828126 8.824218-8.828126h150.070313c4.875 0 8.828125 3.953126 8.828125 8.828126s-3.953125 8.828124-8.828125 8.828124zm0 0" fill="#f09372"/><path d="m105.929688 145.65625v22.066406c-.027344 9.738282-7.914063 17.625-17.652344 17.65625 9.738281.027344 17.625 7.917969 17.652344 17.65625v35.308594c-.027344 9.738281-7.914063 17.625-17.652344 17.65625 9.738281.027344 17.625 7.914062 17.652344 17.65625v35.308594c-.027344 9.738281-7.914063 17.625-17.652344 17.65625h-52.96875c-9.738282-.03125-17.625-7.917969-17.652344-17.65625v-35.308594c.027344-9.742188 7.914062-17.628906 17.652344-17.65625-9.738282-.03125-17.625-7.917969-17.652344-17.65625v-35.308594c.027344-9.738281 7.914062-17.628906 17.652344-17.65625-9.738282-.03125-17.625-7.917968-17.652344-17.65625v-22.066406c-.015625-10.542969 4.164062-20.652344 11.617188-28.105469 7.453124-7.453125 17.566406-11.632812 28.105468-11.621093h8.828125c10.539063-.011719 20.652344 4.167968 28.105469 11.621093s11.632812 17.5625 11.617188 28.105469zm0 0" fill="#f0c419"/><path d="m70.621094 105.929688h-17.65625c-15.289063-.699219-27.128906-13.636719-26.480469-28.925782v-6.488281c-.015625-8.328125 1.980469-16.535156 5.816406-23.925781l21.828125-41.734375c1.402344-2.964844 4.386719-4.855469 7.664063-4.855469 3.277343 0 6.261719 1.890625 7.664062 4.855469l21.828125 41.734375c3.835938 7.390625 5.832032 15.597656 5.816406 23.925781v6.488281c.648438 15.289063-11.191406 28.226563-26.480468 28.925782zm0 0" fill="#c03a2b"/><path d="m494.34375 145.65625v22.066406c-.027344 9.738282-7.914062 17.625-17.652344 17.65625 9.738282.027344 17.625 7.917969 17.652344 17.65625v35.308594c-.027344 9.738281-7.914062 17.625-17.652344 17.65625 9.738282.027344 17.625 7.914062 17.652344 17.65625v35.308594c-.027344 9.738281-7.914062 17.625-17.652344 17.65625h-52.96875c-9.738281-.03125-17.625-7.917969-17.652344-17.65625v-35.308594c.027344-9.742188 7.914063-17.628906 17.652344-17.65625-9.738281-.03125-17.625-7.917969-17.652344-17.65625v-35.308594c.027344-9.738281 7.914063-17.628906 17.652344-17.65625-9.738281-.03125-17.625-7.917968-17.652344-17.65625v-22.066406c-.015624-10.542969 4.164063-20.652344 11.617188-28.105469s17.566406-11.632812 28.105469-11.621093h8.828125c10.539062-.011719 20.652344 4.167968 28.105468 11.621093 7.453126 7.453125 11.632813 17.5625 11.617188 28.105469zm0 0" fill="#f0c419"/><path d="m459.035156 105.929688h-17.65625c-15.289062-.699219-27.128906-13.636719-26.480468-28.925782v-6.488281c-.015626-8.328125 1.980468-16.535156 5.816406-23.925781l21.828125-41.734375c1.402343-2.964844 4.386719-4.855469 7.664062-4.855469 3.277344 0 6.261719 1.890625 7.664063 4.855469l21.828125 41.734375c3.835937 7.390625 5.832031 15.597656 5.816406 23.925781v6.488281c.648437 15.289063-11.191406 28.226563-26.480469 28.925782zm0 0" fill="#c03a2b"/><path d="m176.550781 326.621094v-114.761719c0-43.875 35.570313-79.445313 79.449219-79.445313s79.449219 35.570313 79.449219 79.445313v114.761719zm0 0" fill="#f0c419"/><path d="m256 167.722656c24.375 0 44.136719 19.761719 44.136719 44.136719v114.761719h-88.273438v-114.761719c0-24.375 19.761719-44.136719 44.136719-44.136719zm0 0" fill="#2c2f38"/><path d="m441.378906 414.894531h52.964844c4.875 0 8.828125 3.953125 8.828125 8.828125v21.1875c.210937 14.828125-9.957031 27.789063-24.40625 31.117188-9.128906 1.9375-18.640625-.347656-25.894531-6.214844-7.253906-5.863281-11.476563-14.691406-11.492188-24.019531 0 17.0625-13.832031 30.894531-30.894531 30.894531-17.066406 0-30.898437-13.832031-30.898437-30.894531 0 17.0625-13.832032 30.894531-30.894532 30.894531-17.066406 0-30.898437-13.832031-30.898437-30.894531 0 17.0625-13.832031 30.894531-30.894531 30.894531-17.066407 0-30.898438-13.832031-30.898438-30.894531 0 17.0625-13.832031 30.894531-30.898438 30.894531-17.0625 0-30.894531-13.832031-30.894531-30.894531 0 17.0625-13.832031 30.894531-30.898437 30.894531-17.0625 0-30.894532-13.832031-30.894532-30.894531 0 17.0625-13.832031 30.894531-30.898437 30.894531-17.0625 0-30.894531-13.832031-30.894531-30.894531-.015625 9.328125-4.238282 18.15625-11.492188 24.019531-7.253906 5.867188-16.765625 8.152344-25.894531 6.214844-14.449219-3.328125-24.617187-16.289063-24.40625-31.117188v-21.1875c0-4.875 3.953125-8.828125 8.828125-8.828125zm0 0" fill="#71c285"/></svg>